<svg width="206" height="190" viewBox="0 0 206 190" fill="none" xmlns="http://www.w3.org/2000/svg">
<g filter="url(#filter0_d)">
<ellipse cx="103" cy="91" rx="99" ry="91" fill="#FFAAAA"/>
</g>
<g clip-path="url(#clip0)">
<path d="M111.15 129.904H95.3137V160.632C95.3137 163.464 97.8049 165.76 100.877 165.76H105.586C108.659 165.76 111.15 163.464 111.15 160.632V129.904Z" fill="#8EE2CF"/>
<path d="M167.01 67.7062C160.283 68.4883 145.682 71.5665 128.094 83.5898C126.547 45.4772 111.662 25.0342 105.691 18.3152C104.418 16.8829 102.045 16.8829 100.774 18.3152C94.802 25.0342 79.917 45.4772 78.3706 83.5898C60.7816 71.5665 46.1802 68.4883 39.4539 67.7062C37.3059 67.4564 35.4797 69.1397 35.7494 71.1195C36.7196 78.2038 40.942 94.7644 59.182 114.082C50.6459 116.197 45.0087 119.226 41.8805 121.298C40.1353 122.454 40.0074 124.797 41.5905 126.136C56.7985 138.996 80.4476 141.026 103.232 141.026C126.017 141.026 149.665 138.996 164.873 126.136C166.456 124.796 166.328 122.454 164.583 121.298C161.455 119.228 155.818 116.197 147.282 114.082C165.522 94.7644 169.744 78.2038 170.714 71.1195C170.985 69.1409 169.158 67.4564 167.01 67.7062Z" fill="#8EE2CF"/>
<path d="M81.8699 57.4724C80.0664 65.0401 78.7708 73.7213 78.3706 83.5897C60.7816 71.5665 46.1802 68.4883 39.4539 67.7062C37.3059 67.4564 35.4797 69.1396 35.7494 71.1194C36.7196 78.2038 40.942 94.7644 59.182 114.082C50.6459 116.197 45.0087 119.226 41.8805 121.298C40.1353 122.454 40.0074 124.797 41.5905 126.136C56.7985 138.996 80.4476 141.026 103.232 141.026C108.465 141.026 113.744 140.916 118.955 140.595C89.6462 130.695 80.5312 89.3656 81.8699 57.4724Z" fill="#6FCE91"/>
<path d="M103.232 73.2381C101.889 73.2381 100.8 72.2342 100.8 70.9968V44.0997C100.8 42.8612 101.889 41.8585 103.232 41.8585C104.574 41.8585 105.663 42.8612 105.663 44.0997V70.9968C105.663 72.2342 104.574 73.2381 103.232 73.2381Z" fill="#6FCE91"/>
<path d="M70.0738 101.584C69.452 101.584 68.8289 101.364 68.3552 100.927L53.4309 87.1711C52.481 86.2968 52.481 84.8773 53.4309 84.0018C54.3808 83.1263 55.9196 83.1263 56.8694 84.0018L71.7937 97.7574C72.7436 98.6329 72.7436 100.051 71.7937 100.927C71.3188 101.364 70.697 101.584 70.0738 101.584Z" fill="#8EE2CF"/>
<path d="M136.39 101.584C135.768 101.584 135.145 101.364 134.67 100.927C133.721 100.051 133.721 98.6329 134.67 97.7574L149.594 84.0018C150.544 83.1263 152.084 83.1263 153.033 84.0018C153.983 84.8773 153.983 86.2968 153.033 87.1722L138.11 100.928C137.635 101.364 137.012 101.584 136.39 101.584Z" fill="#6FCE91"/>
<path d="M86.5622 124.98C86.5622 121.029 82.1979 117.826 76.814 117.826C71.4315 117.826 67.0671 121.029 67.0671 124.98C67.0671 128.931 71.4315 132.135 76.814 132.135C82.1979 132.135 86.5622 128.931 86.5622 124.98Z" fill="white"/>
<path d="M139.396 124.98C139.396 121.029 135.032 117.826 129.65 117.826C124.266 117.826 119.901 121.029 119.901 124.98C119.901 128.931 124.266 132.135 129.65 132.135C135.032 132.135 139.396 128.931 139.396 124.98Z" fill="white"/>
<path d="M103.232 94.7061C101.889 94.7061 100.8 93.7022 100.8 92.4649V85.2252C100.8 83.9879 101.889 82.984 103.232 82.984C104.574 82.984 105.663 83.9879 105.663 85.2252V92.4649C105.663 93.7022 104.574 94.7061 103.232 94.7061Z" fill="#6FCE91"/>
<path d="M104.603 150.752C103.982 150.752 103.36 150.534 102.885 150.096C101.935 149.22 101.935 147.801 102.885 146.927L104.923 145.047C105.872 144.173 107.412 144.173 108.361 145.047C109.311 145.923 109.311 147.342 108.361 148.218L106.323 150.096C105.848 150.534 105.227 150.752 104.603 150.752Z" fill="#6FCE91"/>
<path d="M100.815 160.869C100.194 160.869 99.5704 160.65 99.0955 160.212C98.1456 159.336 98.1456 157.918 99.0955 157.043L99.7008 156.485C100.651 155.609 102.189 155.609 103.139 156.485C104.089 157.36 104.089 158.78 103.139 159.654L102.535 160.212C102.06 160.65 101.437 160.869 100.815 160.869Z" fill="#6FCE91"/>
<path d="M123.968 110.677C120.07 110.677 116.897 113.6 116.897 117.194C116.897 118.432 117.986 119.435 119.329 119.435C120.671 119.435 121.76 118.432 121.76 117.194C121.76 116.072 122.751 115.16 123.968 115.16C125.186 115.16 126.177 116.072 126.177 117.194C126.177 118.432 127.265 119.435 128.608 119.435C129.951 119.435 131.04 118.432 131.04 117.194C131.04 113.6 127.868 110.677 123.968 110.677ZM171.488 66.9918C170.223 65.8269 168.48 65.2759 166.706 65.4825C164.795 65.7043 162.772 66.0451 160.69 66.4946C159.383 66.777 158.571 67.9829 158.877 69.1875C159.184 70.3934 160.491 71.1404 161.799 70.8591C163.715 70.4447 165.571 70.1319 167.314 69.9299C167.688 69.8867 167.934 70.056 168.049 70.1622C168.163 70.2673 168.348 70.4949 168.301 70.8393C165.763 89.3831 151.472 106.23 145.446 112.611C144.897 113.195 144.711 113.998 144.955 114.737C145.199 115.476 145.84 116.047 146.65 116.247C154.753 118.255 160.102 121.092 163.163 123.118C163.475 123.324 163.537 123.61 163.547 123.763C163.557 123.923 163.531 124.228 163.228 124.484C150.162 135.535 130.26 138.201 111.19 138.69C111.176 138.69 111.164 138.688 111.15 138.688C111.111 138.688 111.073 138.692 111.033 138.694C108.41 138.759 105.803 138.785 103.232 138.785C100.661 138.785 98.0531 138.759 95.4302 138.694C95.3922 138.692 95.3529 138.688 95.3137 138.688C95.2997 138.688 95.2871 138.69 95.2731 138.69C76.2049 138.201 56.302 135.535 43.2356 124.484C42.9329 124.228 42.9051 123.923 42.9165 123.763C42.9266 123.61 42.9899 123.324 43.3002 123.118C46.3613 121.092 51.711 118.255 59.814 116.247C60.6232 116.047 61.2641 115.476 61.5085 114.737C61.753 113.998 61.5668 113.195 61.0171 112.611C54.9912 106.23 40.7001 89.3831 38.1633 70.8393C38.1165 70.4949 38.3001 70.2673 38.4154 70.1622C38.5293 70.056 38.7763 69.8879 39.1499 69.9299C45.97 70.7225 59.9457 73.7856 76.9217 85.3897C77.6461 85.8858 78.6099 85.9699 79.423 85.6104C80.2361 85.2508 80.7668 84.5049 80.7997 83.6738C82.3106 46.4636 96.5865 26.5633 102.654 19.7358C102.849 19.5151 103.1 19.4825 103.232 19.4825C103.363 19.4825 103.614 19.5151 103.809 19.7358C109.877 26.5633 124.154 46.4624 125.664 83.6738C125.698 84.5049 126.227 85.2508 127.042 85.6104C127.855 85.9699 128.817 85.8858 129.543 85.3897C136.625 80.5489 143.904 76.7178 151.175 74.0062C152.42 73.5416 153.02 72.2354 152.517 71.0879C152.013 69.9404 150.596 69.386 149.351 69.8506C142.95 72.2389 136.559 75.4385 130.303 79.3875C127.884 43.4438 113.721 23.8143 107.572 16.8957C106.502 15.691 104.92 15 103.232 15C101.544 15 99.9617 15.691 98.8915 16.8945C92.7439 23.8143 78.5808 43.4426 76.1618 79.3863C59.9305 69.1397 46.5475 66.2716 39.7578 65.4825C37.9848 65.2759 36.2408 65.8257 34.9756 66.9918C33.7116 68.158 33.1138 69.7642 33.338 71.3996C34.4057 79.2042 38.6497 94.6873 54.9253 112.915C48.0964 114.984 43.3635 117.557 40.4633 119.477C39.0423 120.418 38.1671 121.882 38.062 123.494C37.9569 125.119 38.6446 126.683 39.9478 127.786C53.612 139.341 73.5769 142.428 92.8833 143.101V154.053C92.8833 155.292 93.9712 156.294 95.3149 156.294C96.6574 156.294 97.7466 155.292 97.7466 154.053V143.224C99.5881 143.254 101.419 143.266 103.233 143.266C105.045 143.266 106.877 143.254 108.718 143.224V160.632C108.718 162.223 107.314 163.518 105.587 163.518H100.879C99.9807 163.518 99.1562 163.179 98.5533 162.565C97.6529 161.648 96.1153 161.575 95.1186 162.405C94.1232 163.235 94.0446 164.652 94.9451 165.571C96.4598 167.115 98.6217 168 100.879 168H105.587C109.996 168 113.581 164.694 113.581 160.631V143.101C132.888 142.427 152.853 139.341 166.517 127.786C167.821 126.683 168.509 125.118 168.403 123.493C168.298 121.882 167.424 120.418 166.001 119.476C163.101 117.556 158.368 114.984 151.541 112.914C167.815 94.6862 172.059 79.2042 173.127 71.3996C173.35 69.7642 172.753 68.158 171.488 66.9918ZM75.4234 117.194C75.4234 118.432 76.5126 119.435 77.8551 119.435C79.1988 119.435 80.2868 118.432 80.2868 117.194C80.2868 116.072 81.2784 115.16 82.4955 115.16C83.7126 115.16 84.703 116.072 84.703 117.194C84.703 118.432 85.7922 119.435 87.1347 119.435C88.4784 119.435 89.5663 118.432 89.5663 117.194C89.5663 113.6 86.395 110.677 82.4955 110.677C78.596 110.677 75.4234 113.6 75.4234 117.194ZM106.321 120.719C105.541 121.545 104.415 122.017 103.232 122.017C102.049 122.017 100.923 121.545 100.144 120.719C99.2613 119.787 97.7251 119.689 96.7131 120.502C95.6999 121.316 95.5948 122.732 96.4776 123.665C98.181 125.467 100.643 126.5 103.232 126.5C105.82 126.5 108.283 125.467 109.987 123.665C110.869 122.732 110.764 121.316 109.752 120.502C108.738 119.689 107.202 119.787 106.321 120.719Z" fill="black"/>
</g>
<defs>
<filter id="filter0_d" x="0" y="0" width="206" height="190" filterUnits="userSpaceOnUse" color-interpolation-filters="sRGB">
<feFlood flood-opacity="0" result="BackgroundImageFix"/>
<feColorMatrix in="SourceAlpha" type="matrix" values="0 0 0 0 0 0 0 0 0 0 0 0 0 0 0 0 0 0 127 0"/>
<feOffset dy="4"/>
<feGaussianBlur stdDeviation="2"/>
<feColorMatrix type="matrix" values="0 0 0 0 0 0 0 0 0 0 0 0 0 0 0 0 0 0 0.25 0"/>
<feBlend mode="normal" in2="BackgroundImageFix" result="effect1_dropShadow"/>
<feBlend mode="normal" in="SourceGraphic" in2="effect1_dropShadow" result="shape"/>
</filter>
<clipPath id="clip0">
<rect width="166" height="153" fill="white" transform="translate(20 15)"/>
</clipPath>
</defs>
</svg>
