<svg width="204" height="193" viewBox="0 0 204 193" fill="none" xmlns="http://www.w3.org/2000/svg">
<g filter="url(#filter0_d)">
<ellipse cx="102" cy="92.5" rx="98" ry="92.5" fill="white"/>
</g>
<g clip-path="url(#clip0)">
<path d="M110.068 132.045H94.3913V163.28C94.3913 166.158 96.8573 168.492 99.8988 168.492H104.56C107.602 168.492 110.068 166.158 110.068 163.28V132.045Z" fill="#8EE2CF"/>
<path d="M165.363 68.8222C158.705 69.6172 144.251 72.7461 126.841 84.9676C125.309 46.2268 110.574 25.4468 104.664 18.617C103.404 17.1611 101.055 17.1611 99.796 18.617C93.8848 25.4468 79.1501 46.2268 77.6194 84.9676C60.208 72.7461 45.7542 69.6172 39.0958 68.8222C36.9695 68.5683 35.1617 70.2793 35.4287 72.2917C36.3891 79.4929 40.5689 96.3264 58.6246 115.963C50.1747 118.113 44.5945 121.192 41.4979 123.298C39.7703 124.473 39.6437 126.854 41.2108 128.215C56.2652 141.287 79.6754 143.35 102.229 143.35C124.785 143.35 148.194 141.287 163.248 128.215C164.815 126.853 164.689 124.473 162.961 123.298C159.864 121.193 154.284 118.113 145.834 115.963C163.89 96.3264 168.07 79.4929 169.03 72.2917C169.298 70.2805 167.489 68.5683 165.363 68.8222V68.8222Z" fill="#8EE2CF"/>
<path d="M81.0834 58.4198C79.2981 66.1122 78.0156 74.9365 77.6194 84.9676C60.2081 72.7461 45.7542 69.6172 39.0958 68.8222C36.9695 68.5683 35.1617 70.2793 35.4287 72.2917C36.3891 79.4929 40.5689 96.3264 58.6246 115.963C50.1747 118.113 44.5945 121.192 41.4979 123.298C39.7703 124.473 39.6437 126.854 41.2108 128.215C56.2652 141.287 79.6755 143.35 102.229 143.35C107.41 143.35 112.635 143.239 117.794 142.913C88.7811 132.85 79.7582 90.8386 81.0834 58.4198V58.4198Z" fill="#6FCE91"/>
<path d="M102.229 74.4452C100.901 74.4452 99.8223 73.4248 99.8223 72.1671V44.8266C99.8223 43.5677 100.901 42.5485 102.229 42.5485C103.558 42.5485 104.637 43.5677 104.637 44.8266V72.1671C104.637 73.4248 103.558 74.4452 102.229 74.4452Z" fill="#6FCE91"/>
<path d="M69.4064 103.258C68.7909 103.258 68.1741 103.035 67.7052 102.59L52.9316 88.6079C51.9913 87.7192 51.9913 86.2763 52.9316 85.3864C53.8719 84.4965 55.3951 84.4965 56.3354 85.3864L71.109 99.3687C72.0492 100.259 72.0492 101.7 71.109 102.59C70.6388 103.035 70.0233 103.258 69.4064 103.258Z" fill="#8EE2CF"/>
<path d="M135.052 103.258C134.437 103.258 133.82 103.035 133.35 102.59C132.411 101.7 132.411 100.259 133.35 99.3687L148.124 85.3864C149.064 84.4965 150.588 84.4965 151.527 85.3864C152.468 86.2763 152.468 87.7192 151.527 88.6091L136.755 102.591C136.285 103.035 135.668 103.258 135.052 103.258V103.258Z" fill="#6FCE91"/>
<path d="M85.7283 127.04C85.7283 123.024 81.408 119.768 76.0786 119.768C70.7504 119.768 66.4301 123.024 66.4301 127.04C66.4301 131.057 70.7504 134.313 76.0786 134.313C81.408 134.313 85.7283 131.057 85.7283 127.04V127.04Z" fill="white"/>
<path d="M138.029 127.04C138.029 123.024 133.709 119.768 128.38 119.768C123.051 119.768 118.731 123.024 118.731 127.04C118.731 131.057 123.051 134.313 128.38 134.313C133.709 134.313 138.029 131.057 138.029 127.04V127.04Z" fill="white"/>
<path d="M102.229 96.2671C100.901 96.2671 99.8223 95.2467 99.8223 93.989V86.63C99.8223 85.3722 100.901 84.3518 102.229 84.3518C103.558 84.3518 104.637 85.3722 104.637 86.63V93.989C104.637 95.2467 103.558 96.2671 102.229 96.2671Z" fill="#6FCE91"/>
<path d="M103.587 153.237C102.972 153.237 102.356 153.015 101.886 152.57C100.946 151.68 100.946 150.237 101.886 149.349L103.903 147.438C104.843 146.549 106.368 146.549 107.307 147.438C108.247 148.328 108.247 149.771 107.307 150.661L105.29 152.57C104.82 153.015 104.204 153.237 103.587 153.237Z" fill="#6FCE91"/>
<path d="M99.8374 163.521C99.2218 163.521 98.605 163.298 98.1348 162.853C97.1946 161.963 97.1946 160.521 98.1348 159.631L98.7341 159.064C99.6744 158.174 101.198 158.174 102.138 159.064C103.078 159.954 103.078 161.397 102.138 162.285L101.54 162.853C101.07 163.298 100.453 163.521 99.8374 163.521V163.521Z" fill="#6FCE91"/>
<path d="M122.756 112.501C118.897 112.501 115.757 115.473 115.757 119.126C115.757 120.384 116.835 121.404 118.164 121.404C119.493 121.404 120.571 120.384 120.571 119.126C120.571 117.986 121.551 117.058 122.756 117.058C123.962 117.058 124.943 117.986 124.943 119.126C124.943 120.384 126.02 121.404 127.35 121.404C128.679 121.404 129.757 120.384 129.757 119.126C129.757 115.473 126.616 112.501 122.756 112.501V112.501ZM169.796 68.0961C168.544 66.9119 166.819 66.3518 165.062 66.5618C163.17 66.7873 161.168 67.1338 159.107 67.5906C157.813 67.8777 157.01 69.1034 157.313 70.3279C157.616 71.5537 158.91 72.313 160.205 72.0271C162.102 71.6059 163.939 71.2879 165.664 71.0826C166.035 71.0387 166.278 71.2107 166.392 71.3187C166.505 71.4255 166.688 71.6569 166.642 72.0069C164.129 90.8564 149.983 107.981 144.018 114.468C143.473 115.061 143.289 115.877 143.531 116.628C143.773 117.379 144.407 117.96 145.209 118.164C153.23 120.204 158.525 123.088 161.556 125.148C161.864 125.356 161.925 125.647 161.935 125.803C161.945 125.965 161.919 126.276 161.619 126.536C148.685 137.769 128.985 140.479 110.108 140.976C110.094 140.976 110.081 140.974 110.067 140.974C110.029 140.974 109.991 140.979 109.952 140.98C107.356 141.046 104.774 141.072 102.229 141.072C99.6844 141.072 97.103 141.046 94.5066 140.98C94.469 140.979 94.4301 140.974 94.3913 140.974C94.3775 140.974 94.3649 140.976 94.3512 140.976C75.4755 140.479 55.7737 137.769 42.8393 126.536C42.5396 126.276 42.5121 125.965 42.5233 125.803C42.5334 125.647 42.5961 125.356 42.9032 125.148C45.9334 123.088 51.229 120.204 59.2502 118.164C60.0513 117.96 60.6856 117.379 60.9276 116.628C61.1696 115.877 60.9853 115.061 60.4412 114.468C54.4761 107.981 40.3294 90.8564 37.8182 72.0069C37.7718 71.6569 37.9536 71.4255 38.0677 71.3187C38.1805 71.2107 38.425 71.0399 38.7948 71.0826C45.546 71.8883 59.3805 75.0018 76.1851 86.7972C76.9022 87.3015 77.8563 87.3869 78.6611 87.0215C79.466 86.656 79.9913 85.8978 80.0239 85.053C81.5196 47.2294 95.6512 27.0012 101.658 20.061C101.851 19.8368 102.099 19.8036 102.229 19.8036C102.36 19.8036 102.608 19.8368 102.801 20.061C108.808 27.0012 122.94 47.2282 124.435 85.053C124.469 85.8978 124.993 86.656 125.799 87.0215C126.604 87.3869 127.557 87.3015 128.275 86.7972C135.286 81.8766 142.491 77.9824 149.688 75.226C150.92 74.7538 151.515 73.426 151.017 72.2596C150.518 71.0933 149.115 70.5297 147.883 71.0019C141.547 73.4296 135.22 76.6819 129.027 80.696C126.633 44.1598 112.612 24.2068 106.526 17.1742C105.466 15.9497 103.901 15.2472 102.229 15.2472C100.558 15.2472 98.9923 15.9497 97.933 17.173C91.8475 24.2068 77.8274 44.1586 75.4329 80.6948C59.3655 70.2793 46.1177 67.364 39.3966 66.5618C37.6414 66.3518 35.9151 66.9107 34.6627 68.0961C33.4115 69.2814 32.8197 70.9141 33.0416 72.5765C34.0985 80.5097 38.2996 96.2481 54.4109 114.776C47.651 116.88 42.9659 119.495 40.0949 121.447C38.6883 122.403 37.822 123.891 37.7179 125.53C37.6139 127.181 38.2946 128.771 39.5847 129.893C53.1108 141.638 72.8741 144.776 91.9854 145.46V156.592C91.9854 157.851 93.0624 158.871 94.3925 158.871C95.7214 158.871 96.7996 157.851 96.7996 156.592V145.585C98.6225 145.616 100.435 145.627 102.231 145.627C104.025 145.627 105.838 145.616 107.66 145.585V163.28C107.66 164.897 106.27 166.213 104.561 166.213H99.9C99.0111 166.213 98.195 165.869 97.5982 165.245C96.7068 164.312 95.1849 164.238 94.1982 165.082C93.2128 165.926 93.1351 167.366 94.0264 168.3C95.5259 169.87 97.6659 170.769 99.9 170.769H104.561C108.925 170.769 112.475 167.409 112.475 163.279V145.46C131.586 144.774 151.349 141.638 164.875 129.893C166.167 128.771 166.847 127.18 166.742 125.529C166.638 123.891 165.773 122.403 164.365 121.446C161.494 119.494 156.809 116.88 150.05 114.775C166.16 96.2469 170.362 80.5097 171.418 72.5765C171.639 70.9141 171.049 69.2814 169.796 68.0961V68.0961ZM74.702 119.126C74.702 120.384 75.7801 121.404 77.1091 121.404C78.4392 121.404 79.5162 120.384 79.5162 119.126C79.5162 117.986 80.4978 117.058 81.7026 117.058C82.9074 117.058 83.8878 117.986 83.8878 119.126C83.8878 120.384 84.966 121.404 86.2949 121.404C87.6251 121.404 88.702 120.384 88.702 119.126C88.702 115.473 85.5627 112.501 81.7026 112.501C77.8425 112.501 74.702 115.473 74.702 119.126ZM105.287 122.709C104.515 123.548 103.4 124.029 102.229 124.029C101.058 124.029 99.9439 123.548 99.1729 122.709C98.299 121.761 96.7783 121.662 95.7766 122.489C94.7736 123.316 94.6696 124.755 95.5434 125.703C97.2296 127.535 99.6668 128.585 102.229 128.585C104.792 128.585 107.229 127.535 108.917 125.703C109.789 124.755 109.685 123.316 108.683 122.489C107.68 121.662 106.16 121.761 105.287 122.709V122.709Z" fill="black"/>
</g>
<defs>
<filter id="filter0_d" x="0" y="0" width="204" height="193" filterUnits="userSpaceOnUse" color-interpolation-filters="sRGB">
<feFlood flood-opacity="0" result="BackgroundImageFix"/>
<feColorMatrix in="SourceAlpha" type="matrix" values="0 0 0 0 0 0 0 0 0 0 0 0 0 0 0 0 0 0 127 0"/>
<feOffset dy="4"/>
<feGaussianBlur stdDeviation="2"/>
<feColorMatrix type="matrix" values="0 0 0 0 0 0 0 0 0 0 0 0 0 0 0 0 0 0 0.25 0"/>
<feBlend mode="normal" in2="BackgroundImageFix" result="effect1_dropShadow"/>
<feBlend mode="normal" in="SourceGraphic" in2="effect1_dropShadow" result="shape"/>
</filter>
<clipPath id="clip0">
<rect width="164.323" height="155.522" fill="white" transform="translate(19.8384 15.2472)"/>
</clipPath>
</defs>
</svg>
